<svg xmlns="http://www.w3.org/2000/svg" viewBox="0 0 200 170" fill="none"><defs><linearGradient id="metal" x1="53" y1="35" x2="147" y2="134" gradientUnits="userSpaceOnUse"><stop stop-color="#e7ceff"/><stop offset="1" stop-color="#7653a1"/></linearGradient></defs><path d="M49 45h102v86c0 14-23 26-51 26s-51-12-51-26Z" fill="url(#metal)" stroke="#dcc0f7" stroke-width="2"/><ellipse cx="100" cy="45" rx="51" ry="25" fill="#e0bff8" stroke="#f3e4ff" stroke-width="2"/><ellipse cx="100" cy="45" rx="36" ry="15" fill="#604779"/><path d="M49 74c0 14 23 25 51 25s51-11 51-25M49 103c0 14 23 25 51 25s51-11 51-25" stroke="#eddaff" stroke-width="3"/><path d="M68 88v13m0 14v13" stroke="#f7ebff" stroke-width="4" stroke-linecap="round"/><path d="m168 37 2 8 8 2-8 2-2 8-2-8-8-2 8-2Z" fill="#e4c5ff"/></svg>